<?xml version="1.0" encoding="UTF-8"?>
<svg id="Layer_2" data-name="Layer 2" xmlns="http://www.w3.org/2000/svg" viewBox="0 0 107.22 71.75">
  <defs>
    <style>
      .cls-1 {
        fill: #fff;
        stroke-width: 0px;
      }
    </style>
  </defs>
  <g id="Layer_1-2" data-name="Layer 1">
    <path class="cls-1" d="M21.08,49.07c.36-6.23.01-12.6,1.25-18.65,2-9.81,8.75-12.59,17.42-7.61,7.57,4.35,17.98,7.49,21.6,14.17,6.73,12.4,19.06,15.17,28.69,22.4,4.16,3.12,8.21,4.91,10.97-1.83.67-1.64,2.25-3.3,4.47-2.19,2.72,1.37,1.69,3.38.81,5.56-4.32,10.73-6.47,11.57-16.19,5.9-6.48-3.77-12.94-7.58-19.41-11.37-4.5-2.64-8.69-4.1-14.56-3.96-9.16.21-16.09-7.36-23.69-12.13-1.45-.91-1.53-2.61-.15-4.02,1.32-1.34,2.82-1.19,4.26-.36,5.14,2.97,10.25,5.99,15.37,9,1.95,1.15,4.16,2.48,5.6-.21,1.1-2.05-.83-3.44-2.43-4.41-6.41-3.89-12.84-7.75-19.33-11.51-5.44-3.15-7.07,1.08-7.31,4.79-.6,9.34-.4,18.73-.57,28.1-.08,4.24,2.98,3.98,5.79,4.27,1.64.17,3.21,1,3.23,2.79.02,2.23-1.62,2.91-3.7,3.34-8.92,1.85-11.68-.39-11.75-9.87-.03-4.06,0-8.13,0-12.19-.11,0-.22-.01-.33-.02Z"/>
    <path class="cls-1" d="M18.45,10.1c-.82-2.15-1.49-4.61,1.34-5.47,3.29-1,4.17,1.9,4.96,4.24,2.36,6.96-1.5,14.28-8.53,16.38-6.53,1.95-13.56-1.83-15.61-8.39C-1.58,9.84,2.38,2.17,9.18.6c2.34-.54,5.43-1.51,6.65,1.44,1.51,3.65-2.01,3.75-4.2,4.51-4.16,1.43-6.44,4.13-4.89,8.52,1.16,3.29,3.93,4.8,7.51,3.95,3.41-.82,4.69-3.67,4.19-8.9Z"/>
  </g>
</svg>