<?xml version="1.0" encoding="UTF-8"?>
<svg id="Layer_2" data-name="Layer 2" xmlns="http://www.w3.org/2000/svg" viewBox="0 0 107.74 92.65">
  <defs>
    <style>
      .cls-1 {
        fill: #fff;
        stroke-width: 0px;
      }
    </style>
  </defs>
  <g id="Layer_1-2" data-name="Layer 1">
    <path class="cls-1" d="M74.05,46.42c-4.7,0-9.39-.04-14.09.01-8.77.11-16.75-.79-24,7.88-7.2,8.61-19.6,8.64-30.73,8.59-3.88-.02-4.58-2.68-4.6-5.69-.07-10.33-.07-20.66-.02-31,0-2.24.25-4.68,3.28-4.68,3.21,0,3.01,2.62,3.02,4.76.07,7.83.31,15.67-.03,23.48-.27,6.17,2.27,7.85,7.87,6.37,2.71-.72,5.55-1,8.24-1.79,8.46-2.49,14.82-7.12,14.87-16.88.05-9.74-6.12-14.66-14.66-16.99-4.8-1.31-9.82-1.78-14.73-2.69-2.82-.53-6.91,1.04-7.56-3.53C.29,9.97-.25,5.53,1.63,1.36,2.14.22,3.43-.35,4.78.23c1.64.72,2.3,2.17,2.07,3.81-1,7.17,3.4,7.65,8.97,8.43,13.98,1.97,26.57,6.33,28.54,23.29.76,6.53,5.93,4.64,9.45,4.4,4.57-.32,12.55,2.91,12.85-2.87.27-5.16-7.73-1.97-11.98-2.85-2.54-.53-6.47.97-6.54-3.2-.06-3.57,3.53-2.86,5.84-2.87,15.97-.08,31.94-.06,47.91.03,2.33.01,5.83-.59,5.84,2.91,0,3.36-3.35,3.05-5.79,3.07-7.2.06-14.4-.04-21.6.1-2.29.04-5.64-.72-5.39,3.23.19,3.13,3.08,2.55,5.11,2.58,6.89.11,13.78-.04,20.66.1,2.63.05,6.85-1.01,6.92,2.72.08,4.52-4.51,3.2-7.29,3.26-8.76.2-17.53.08-26.3.07Z"/>
    <path class="cls-1" d="M35.18,36.89c.25,7.36-5.26,13.24-12.65,13.11-7.77-.14-12.35-4.6-12.74-12.03-.3-5.8,2.01-11.64,8.89-12.08,11.47-.74,16.22,2.85,16.49,11ZM22.71,43.87c4.01-.77,6.36-3.13,6-7.11-.33-3.74-3.19-6.92-6.5-6.71-3.21.2-5.99,3.39-5.97,7.29.02,4.11,2.64,6.06,6.46,6.53Z"/>
    <path class="cls-1" d="M7.37,80.01c-1.57,4.69,2,12.59-3,12.64-6.79.07-3.69-7.88-3.53-12.13.16-4.55-3.54-12.96,3.45-12.96,5.39,0,1,8.52,3.08,12.44Z"/>
  </g>
</svg>