<?xml version="1.0" encoding="UTF-8"?>
<svg id="Layer_2" data-name="Layer 2" xmlns="http://www.w3.org/2000/svg" viewBox="0 0 100.86 106.42">
  <defs>
    <style>
      .cls-1 {
        fill: #fff;
        stroke-width: 0px;
      }
    </style>
  </defs>
  <g id="Layer_1-2" data-name="Layer 1">
    <path class="cls-1" d="M50.32,31.35c12.87-.17,25.56-2.09,38.25-3.97,2.12-.31,4.66-.44,5.1-3.19.15-.96-.57-2.59-1.39-3.07-2.73-1.6-3.79.84-5.08,2.55-1,1.34-2.3,2.4-3.93,1.39-1.89-1.18-2.21-3.67-1.05-4.94,4.4-4.87,6.53-10.26,5.76-16.85-.19-1.64.81-3.1,2.66-3.24,2.44-.19,3.47,1.61,3.34,3.57-.42,6.2,1.76,11.04,5.41,16.17,3.9,5.48-.49,12.43-7.89,13.47-12.07,1.68-24.06,4.42-36.34,4-5.57-.19-8.14,1.81-7.67,7.62.33,4.04-.03,8.14.11,12.2.08,2.35-.57,5.94,2.94,5.75,3.07-.17,2.81-3.62,2.87-6.1.11-4.07.05-8.14.2-12.2.06-1.64.79-3.16,2.69-3.18,1.85-.02,2.65,1.34,2.89,3.04.05.31.15.63.11.93-2.47,18.31,5.11,36.65-.1,54.96-.74,2.61-.58,6.75-4.23,6.14-4.74-.8-2.37-4.86-1.82-7.66,1.54-7.99,3.45-15.93.67-24.06-.61-1.8-.81-3.94-3.03-4.24-3.13-.42-3.13,2.37-3.78,4.34-2.58,7.78-1.04,15.44.49,23.17.55,2.79,2.54,7.3-1.29,8.19-5.09,1.17-4.16-4.42-4.9-7.24-2.32-8.86-1.96-17.69-.65-26.89,1.43-10.05.31-20.46.34-30.72.01-4.08-2.91-4.01-5.77-4.38-8.38-1.08-16.75-2.22-25.09-3.51C.2,31.83-3.23,24.06,3.46,16.76c3.31-3.61,3.05-7.14,3.3-11.09C6.91,3.3,6.28.01,10.03.2c3.02.15,2.79,3.15,2.56,5.15-.63,5.44,1.28,9.58,5.2,13.26,1.49,1.4,2.52,3.82.47,5.87-2.44,2.44-3.84.36-5.18-1.41-1.16-1.54-2.35-3.26-4.49-1.99-.85.5-1.66,2.01-1.58,2.99.19,2.31,2.33,2.69,4.15,3.02,12.95,2.36,26,3.88,39.16,4.26Z"/>
    <path class="cls-1" d="M50.14,2.02c4.08.25,7.18,1.6,9.61,4.21,1.47,1.58,3.22,3.56,1.61,5.71-1.72,2.3-3.82,1.25-5.53-.51-3.39-3.49-6.98-4.15-10.41-.27-2.1,2.38-2.07,5.32.09,7.65,3.51,3.77,7.09,3.12,10.37-.52,1.56-1.73,3.42-3.34,5.49-1.22,2.48,2.54.03,4.71-1.51,6.39-4.28,4.67-9.66,5.72-15.25,2.85-5.54-2.85-8.13-7.77-6.75-13.99,1.47-6.61,6.12-9.8,12.26-10.31Z"/>
  </g>
</svg>