<?xml version="1.0" encoding="UTF-8"?>
<svg id="Layer_2" data-name="Layer 2" xmlns="http://www.w3.org/2000/svg" viewBox="0 0 85.61 107.28">
  <defs>
    <style>
      .cls-1 {
        fill: #fff;
        stroke-width: 0px;
      }
    </style>
  </defs>
  <g id="Layer_1-2" data-name="Layer 1">
    <path class="cls-1" d="M52.37,49.53c-.62,11.15-2.19,22.31.72,33.41,1.65,6.27.35,12.41-1.46,18.47-.79,2.62-.92,6.55-4.6,5.77-3.94-.85-2.14-4.36-1.49-7.03,1.49-6.06,3.31-12.08.82-18.38-.7-1.77-.87-3.78-3.18-4.05-3-.35-3.43,2.1-4.13,4.14-2.15,6.27-.64,12.32.91,18.44.57,2.24,1.99,5.57-1.14,6.62-4.14,1.39-4.12-2.77-4.87-5.17-2.16-6.92-3.4-13.81-1.13-21.14,2.93-9.45-.33-19.04.94-31.9-10.5,11.85-20.09,9.39-29.75,4.16-1.95-1.06-4.28-2.26-3.26-4.9,1.11-2.86,3.87-2,5.58-.92,9.09,5.72,16.44,3.78,24.41-3.08,6.87-5.92,18.34-5.4,25.24.85,7.16,6.49,13.88,7.45,21.96,2.74,2.12-1.24,5.28-2.67,6.62.16,1.71,3.62-2.23,4.53-4.51,5.8-10.2,5.68-19.66,5.38-27.91-3.76-10.7-5.69-12.21-4.86-12.26,6.8-.02,3.1-.02,6.2.08,9.29.06,1.84.12,4.17,2.44,4.37,2.99.25,3.16-2.34,3.26-4.5.13-2.78.36-5.61.04-8.35-.6-5.18,1.98-7.32,6.67-7.82Z"/>
    <path class="cls-1" d="M42.61,0c21.21.17,39.89,15.13,42.33,34.15.36,2.79,2.12,7.24-2.01,8.04-4.78.92-3.6-4.06-4.17-6.71-3.81-17.88-18.47-29.36-37.32-29.02-18.3.33-31.65,11.88-35.05,30.3-.42,2.27.51,5.84-3.18,5.65-4.19-.21-3.15-3.78-2.94-6.49C1.86,15.65,20.52-.18,42.61,0Z"/>
    <path class="cls-1" d="M41.9,36.78c-5.58-.38-9.88-3.47-11.51-9.62-1.64-6.19.62-11.11,6.04-14.29,5.54-3.26,10.84-2.22,15.36,2.13,1.7,1.63,4,3.79,1.61,6.32-2.02,2.14-3.89.41-5.52-1.18-3.16-3.07-6.62-3.61-9.82-.3-2.53,2.62-2.45,5.81.14,8.34,3.27,3.2,6.72,2.75,9.72-.61,1.84-2.07,4.1-3.78,6.13-1.05,1.8,2.42-.5,4.68-2.19,6.44-2.47,2.57-5.6,3.87-9.95,3.83Z"/>
  </g>
</svg>