<?xml version="1.0" encoding="UTF-8"?>
<svg id="Layer_2" data-name="Layer 2" xmlns="http://www.w3.org/2000/svg" viewBox="0 0 106.35 108.57">
  <defs>
    <style>
      .cls-1 {
        fill: #fff;
        stroke-width: 0px;
      }
    </style>
  </defs>
  <g id="Layer_1-2" data-name="Layer 1">
    <path class="cls-1" d="M20.59,51.72c0-14.71-.03-29.43,0-44.14,0-2.68-.81-6.54,3.13-6.56,3.85-.02,3.33,3.83,3.34,6.55.06,14.4.02,28.8.06,43.2,0,3.27-1.07,6.56,5.03,5.96,5.26-.52,6.83,4.42,6.82,9.28-.01,8.77.56,17.58-.14,26.28-.66,8.18,2.57,10.29,10.13,9.69,7.47-.6,15.03-.39,22.53-.06,6.87.3,13.11.15,16.45-7.42,1-2.27,3.12-4.47,5.94-2.16,2.45,2.01.15,3.94-.77,5.75-3.69,7.24-8.72,11.02-17.76,10.42-14.03-.93-28.16-.36-42.25-.2-8.6.1-12.66-3.7-12.54-12.45.2-14.71.05-29.43.02-44.14ZM27.26,61.28c0,12.2-.03,24.24.06,36.27.01,1.49.43,3.34,2.39,3.38,2.64.05,2.69-2.29,2.71-4.01.09-10.3.06-20.6-.03-30.9-.02-2.43-1.28-4.12-5.13-4.74Z"/>
    <path class="cls-1" d="M29.92,38.81c.32-3.31,3.03-6.8,7.76-8.76,4.8-2,9.22-1.08,13.07,2.17,2.1,1.77,4.79,4.11,2.35,7.01-2.49,2.96-4.3-.24-6.03-1.73-2.7-2.33-5.45-2.91-8.42-.63-2.17,1.67-3.38,3.95-2.28,6.54,2.4,5.68,6.21,6.6,10.93,2.5,1.8-1.57,3.49-4.65,5.97-1.78,2.43,2.82-.19,5.24-2.21,7.1-4.41,4.08-9.58,4.39-14.74,1.84-5.01-2.47-6.88-6.96-6.39-14.27Z"/>
    <path class="cls-1" d="M31.48,13.52c1.52-4.18-2.34-11.86,3.17-11.99,5.37-.13,3.2,7.6,2.92,11.68-.32,4.66,3.55,13.04-3.14,13.21-5.22.14-1.28-8.46-2.95-12.9Z"/>
    <path class="cls-1" d="M49.34,6.91c-3.04-.83-8.46,1.69-8.39-3.24.09-5.83,5.85-2.94,9.01-3.09,3.19-.15,9.14-2.17,8.82,3.28-.29,4.91-6.15,2.12-9.45,3.04Z"/>
    <path class="cls-1" d="M9.33.26c3.06.97,8.52-1.74,8.42,3.18-.11,5.41-5.78,3.2-9.03,3.21C5.52,6.66-.36,8.68.02,3.25.37-1.77,6.2,1.42,9.33.26Z"/>
    <path class="cls-1" d="M103.37,91.46c1.73.16,2.86.92,2.98,2.83.17,2.69-8.4,13.73-10.5,13.38-1.8-.29-2.52-1.51-2.43-3.34.14-2.81,7.82-12.81,9.95-12.87Z"/>
  </g>
</svg>