<?xml version="1.0" encoding="UTF-8"?>
<svg id="Layer_2" data-name="Layer 2" xmlns="http://www.w3.org/2000/svg" viewBox="0 0 107.2 69.15">
  <defs>
    <style>
      .cls-1 {
        fill: #fff;
        stroke-width: 0px;
      }
    </style>
  </defs>
  <g id="Layer_1-2" data-name="Layer 1">
    <path class="cls-1" d="M58.81,52.78c4.66.2,7.74.38,10.82.46,8.54.22,11.4,4.23,9.07,12.59-.45,1.61-1.03,3.03-2.83,3.2-1.87.18-3.22-1.24-3.16-2.74.31-7.42-4.74-6.63-9.46-6.5-1.56.04-3.13.02-4.69,0-10.52-.12-11.08-1.16-5.48-10.52,5.3-8.86,10.83-17.57,15.97-26.52,4.97-8.67,4.19-9.84-5.8-9.92-4.69-.04-9.39-.05-14.08.02-2.19.03-5.03.12-4.85,3,.17,2.62,2.9,2.81,5.18,2.82,4.07.02,8.14.02,12.2.14,1.9.06,4.03.39,3.94,2.9-.08,2.42-2.23,3.01-4.08,2.82-8.06-.83-15.76.93-24.19-3.97-8.42-4.9-19.98-2.41-30.14-.67-2.53.43-5.67,3.31-7.05-.88-1.01-3.09,2.36-3.98,4.52-5.02,4.14-2,7.92-3.04,13.16-2.2,7.82,1.25,15.63,1.66,24.06-3.17,9.29-5.32,21.47-3.66,31.96-.66,6.37,1.82,6,8.12,3.04,13.39-5.63,10.03-11.48,19.94-18.11,31.42Z"/>
    <path class="cls-1" d="M92.86,0c10.68-.02,17.05,9.5,13.21,17.65-.95,2.02-2.1,4.34-4.68,3.67-2.88-.75-2.31-3.2-1.55-5.4,1.62-4.66.31-8.16-4.53-9.51-3.08-.86-5.67.86-6.72,3.73-1.77,4.83.49,7.75,5.23,9.04,1.97.54,3.71,1.73,3.08,3.85-.74,2.51-3,2.9-5.38,2.17-6.87-2.09-10.71-6.71-9.92-13.89C82.39,4.17,86.98.35,92.86,0Z"/>
    <path class="cls-1" d="M36.84,53.32c1.55,0,3.11-.03,4.66,0,1.98.05,3.98.58,4.23,2.77.33,2.85-1.8,3.78-4.21,3.65-5.05-.26-9.43,0-9.24,6.89.04,1.53-1.36,3.02-3.2,2.35-.94-.34-1.83-1.58-2.21-2.61-3.18-8.48.41-13.15,9.97-13.06Z"/>
  </g>
</svg>