<?xml version="1.0" encoding="UTF-8"?>
<svg id="Layer_2" data-name="Layer 2" xmlns="http://www.w3.org/2000/svg" viewBox="0 0 91.31 106.88">
  <defs>
    <style>
      .cls-1 {
        fill: #fff;
        stroke-width: 0px;
      }
    </style>
  </defs>
  <g id="Layer_1-2" data-name="Layer 1">
    <path class="cls-1" d="M55.01,53.37c-4.07,12.33,5.45,26.45.37,40.7-.62,1.75-.69,3.69-1.21,5.48-.65,2.26-.73,5.63-4.33,4.64-2.73-.75-1.99-3.55-1.65-5.65,1.34-8.31,3.84-16.56,1.19-25.03-.69-2.21-.48-5.62-3.98-5.38-2.71.18-2.57,3.01-3.25,5.06-2.84,8.51-.38,16.7,1.26,24.95.49,2.47,1.4,5.5-1.92,6.25-3.37.77-3.78-2.4-4.3-4.82-2.02-9.52-3.41-18.91-1.07-28.75,2.47-10.42-.02-21.17.56-31.76.28-5.11-3.68-5.18-6.97-5.59-7.93-.99-11.63-5.1-10.76-13.22.55-5.17,1.02-10.28-7-9.76-2.27.15-4.45-3.59-2.14-4.34,5.14-1.67,10.48-5.26,16.34-2.19,2.89,1.51,3.73,3.02,1.67,6.59-5.96,10.34-3.11,15.87,8.46,17.71,6.85,1.09,13.73.95,20.55-.29,9.26-1.69,12.26-8.29,7.53-16.78-.99-1.78-3.83-2.97-1.55-5.36,1.9-1.99,4.23-4.53,7.19-3.3,2.65,1.1,5.11,2.1,8.01,2.02,1.98-.05,3.88.54,3.98,2.92.1,2.39-1.8,3.36-3.73,3.25-6.18-.38-5.97,3.58-6.02,7.92-.15,12.49-.97,13.31-13.5,15.29-.31.05-.62.08-.93.12-14.97,2.18-18.62,7.74-15,22.8.45,1.86.85,3.93,3.29,3.61,2.45-.32,2.35-2.59,2.4-4.4.11-4.06,0-8.13.12-12.2.07-2.38-.52-5.65,3.17-5.57,3.53.07,3.11,3.25,3.19,5.68.08,2.5.02,5,.02,9.4Z"/>
    <path class="cls-1" d="M6.41,53.52c0,15.33.07,30.66-.04,45.99-.02,2.83,1.31,7.26-3.22,7.33-3.78.06-3.06-4.03-3.07-6.68C.02,69.19,0,38.22.04,7.24.05,4.59-.66.7,3.41.84c4.08.14,2.96,4.16,2.98,6.7.13,15.33.07,30.66.08,45.99h-.06Z"/>
    <path class="cls-1" d="M91.27,53.79c0,15.62.06,31.24-.04,46.85-.02,2.53.94,6.51-3.38,6.22-3.32-.22-2.67-3.77-2.67-6.08-.05-31.24-.04-62.47.09-93.71,0-2.45-1.16-6.51,3.27-6.22,3.35.22,2.67,3.73,2.68,6.07.08,15.62.05,31.24.05,46.85Z"/>
    <path class="cls-1" d="M46.09,25.56c-6.24-.27-10.99-2.88-12.59-9.2-1.52-6.03.09-11.37,5.79-14.49,5.46-2.99,10.91-2.44,15.53,1.98,1.78,1.7,3.78,3.9,1.58,6.47-2.14,2.5-3.85.39-5.37-1.17-3.05-3.14-6.36-4.14-9.76-.73-2.52,2.54-2.88,5.71-.4,8.41,3.54,3.86,7.12,3.02,10.4-.64,1.44-1.6,3.01-3.83,5.28-1.4,1.85,1.97.62,4.06-.75,5.89-2.43,3.24-5.78,4.63-9.72,4.88Z"/>
  </g>
</svg>