<?xml version="1.0" encoding="UTF-8"?>
<svg id="Layer_2" data-name="Layer 2" xmlns="http://www.w3.org/2000/svg" viewBox="0 0 55.44 108.06">
  <defs>
    <style>
      .cls-1 {
        fill: #fff;
        stroke-width: 0px;
      }
    </style>
  </defs>
  <g id="Layer_1-2" data-name="Layer 1">
    <path class="cls-1" d="M38.23,24.67c1.22-.26,2.49-.87,3.65-.72,5.92.76,13.6,1.49,13.56,8.61-.05,7.78-8.01,6.11-13.26,6.08-5.28-.02-10.82-.28-15.78-1.89-6.61-2.15-9.85-.27-11.93,5.99-1.57,4.73-4.06,9.15-5.84,13.82-1,2.62-4.39,6.4-.22,7.99,3.87,1.47,4.2-3.63,5.46-6.14,2.51-5.03,4.49-10.32,6.82-15.45.88-1.95,1.89-4.51,4.65-3.56,3.58,1.23,2.02,3.98,1.09,6.22-2.04,4.91-4,9.87-6.39,14.61-2.51,4.98-.77,6.56,4.27,7.04,20.28,1.93,20.8.89,11.51,21.64-.89,2-1.75,4.02-2.78,5.95-2.14,4-2.97,7.16,3.47,6.88,2.31-.1,4.71.55,4.31,3.54-.38,2.87-3.01,2.7-5.17,2.75-2.5.07-5.01,0-7.51.03-5.69.09-7.47-2.2-4.86-7.55,2.75-5.62,4.92-11.55,8.05-16.94,4.29-7.4,1.52-9.71-5.91-10.08-5.61-.28-11.26-.82-16.77-1.85-7.86-1.47-10.24-6.09-7.6-13.69.41-1.18.91-2.33,1.47-3.45,3.77-7.52,4.95-16.76,11.09-22.53,7.33-6.89,16.09,1.03,24.26.1,1.45-.17,2.92-.18,5.08-.31-2.03-2.74-4.58-4.35-4.43-7.4l-.28.3Z"/>
    <path class="cls-1" d="M38.51,24.37c-3.03.49-6.08,1.48-9.09,1.36-5.87-.25-9.98-3.4-11.36-9.26-1.43-6.06.25-11.2,5.83-14.41,5.55-3.2,11.74-2.8,15.22,2.19,4.44,6.36,3.66,13.77-.88,20.42-.01,0,.27-.29.27-.29ZM38.14,12.41c-2.36-2.3-3.82-5.82-7.94-5.58-4.01.24-6.47,2.63-6.26,6.63.21,4.04,3.01,6.17,6.98,5.85,3.83-.31,5.69-3.23,7.22-6.9Z"/>
  </g>
</svg>