<?xml version="1.0" encoding="UTF-8"?>
<svg id="Layer_2" data-name="Layer 2" xmlns="http://www.w3.org/2000/svg" viewBox="0 0 81.18 89.79">
  <defs>
    <style>
      .cls-1 {
        fill: #fff;
        stroke-width: 0px;
      }
    </style>
  </defs>
  <g id="Layer_1-2" data-name="Layer 1">
    <path class="cls-1" d="M7.45,64.25c0-6.25-.12-12.51.03-18.76.14-6.02,3.32-10.17,9.05-11.68,5.26-1.38,8.95,1.52,11.69,5.83,4.36,6.86,8.87,13.62,13.08,20.57,2.48,4.11,4.34,4.64,7.15.22,8.05-12.66,16.32-25.18,24.56-37.72,3.6-5.48,1.47-11.58,2.07-17.38.25-2.41-.32-5.63,3.42-5.31,2.92.25,2.45,3.23,2.55,5.27.47,9.4.1,18.2-6.1,26.58-9.84,13.3-18.24,27.65-27.41,41.45-6.71,10.08-13.22,9.86-19.92-.46-3.23-4.98-6.4-10.01-9.54-15.05-1.18-1.9-2.35-4.15.04-5.78,2.54-1.72,4.03.52,5.22,2.31,3.44,5.22,6.68,10.57,10.15,15.77,1.27,1.9,2.34,5.31,5.48,3.27,2.38-1.54.7-3.95-.46-5.79-5.02-7.92-10.09-15.81-15.15-23.71-1.4-2.18-2.97-4.31-5.96-3.35-2.77.89-3.66,3.46-3.71,6-.21,10.63-.18,21.25-.33,31.88-.06,4.43,2.78,4.94,6.18,5.1,1.92.09,4.09.66,4.03,2.98-.08,3.04-2.75,2.72-4.89,2.95-10.12,1.12-11.28.11-11.34-10.17-.03-5,0-10.01-.01-15.01.05,0,.09,0,.14,0Z"/>
    <path class="cls-1" d="M13.27,29.06c-5.85-.32-10.22-2.93-12.31-8.5C-1.29,14.52.49,9.36,5.61,5.68c4.83-3.47,10.04-3.27,14.88.13,2.29,1.61,5.1,4.03,3.4,6.91-2.36,3.99-4.47.53-6.55-1.17-3.11-2.53-6.4-2.66-9.11.51-2.34,2.74-2.24,5.88.33,8.43,2.95,2.92,6.09,2.49,9.14-.18,1.66-1.45,3.22-5.15,5.83-2.15,2.79,3.2-.28,5.72-2.52,7.85-2.12,2.02-4.87,2.71-7.74,3.04Z"/>
  </g>
</svg>